<mxfile host="app.diagrams.net" modified="2023-06-28T07:47:58.914Z" agent="Mozilla/5.0 (Windows NT 10.0; Win64; x64) AppleWebKit/537.36 (KHTML, like Gecko) Chrome/114.0.0.0 Safari/537.36" etag="glg_HzfJ7sG1yU_SQrDi" version="21.5.0" type="github">
  <diagram name="Page-1" id="64c3da0e-402f-94eb-ee01-a36477274f13">
    <mxGraphModel dx="1518" dy="679" grid="1" gridSize="10" guides="1" tooltips="1" connect="1" arrows="1" fold="1" page="1" pageScale="1" pageWidth="1169" pageHeight="826" background="none" math="0" shadow="0">
      <root>
        <mxCell id="0" />
        <mxCell id="1" parent="0" />
        <mxCell id="2" value="Online ticketing flight system website" style="whiteSpace=wrap;rounded=1;shadow=1;fillColor=#10739E;strokeColor=none;fontColor=#FFFFFF;fontStyle=1;fontSize=24" parent="1" vertex="1">
          <mxGeometry x="1250" y="48" width="340" height="60" as="geometry" />
        </mxCell>
        <mxCell id="3" value="Discovery and planning" style="whiteSpace=wrap;rounded=1;fillColor=#F2931E;strokeColor=none;shadow=1;fontColor=#FFFFFF;fontStyle=1;fontSize=14" parent="1" vertex="1">
          <mxGeometry x="140" y="167.9999999999998" width="140" height="60" as="geometry" />
        </mxCell>
        <mxCell id="4" value="Design" style="whiteSpace=wrap;rounded=1;fillColor=#F2931E;strokeColor=none;shadow=1;fontColor=#FFFFFF;fontStyle=1;fontSize=14" parent="1" vertex="1">
          <mxGeometry x="780" y="167.9999999999998" width="140" height="60" as="geometry" />
        </mxCell>
        <mxCell id="6" value="Development" style="whiteSpace=wrap;rounded=1;fillColor=#F2931E;strokeColor=none;shadow=1;fontColor=#FFFFFF;fontStyle=1;fontSize=14" parent="1" vertex="1">
          <mxGeometry x="1180" y="167.9999999999998" width="140" height="60" as="geometry" />
        </mxCell>
        <mxCell id="7" value="Maintenance and support" style="whiteSpace=wrap;rounded=1;fillColor=#F2931E;strokeColor=none;shadow=1;fontColor=#FFFFFF;fontStyle=1;fontSize=14" parent="1" vertex="1">
          <mxGeometry x="1750" y="167.9999999999998" width="140" height="60" as="geometry" />
        </mxCell>
        <mxCell id="10" value="Define project scope, requirements, goals, objectives, and deliverables" style="whiteSpace=wrap;rounded=1;fillColor=#12AAB5;strokeColor=none;shadow=1;fontColor=#FFFFFF;" parent="1" vertex="1">
          <mxGeometry x="50" y="298.0000000000001" width="120" height="60" as="geometry" />
        </mxCell>
        <mxCell id="12" value="Form project team and assign roles and responsibilities" style="whiteSpace=wrap;rounded=1;fillColor=#12AAB5;strokeColor=none;shadow=1;fontColor=#FFFFFF;" parent="1" vertex="1">
          <mxGeometry x="250" y="298.0000000000001" width="120" height="60" as="geometry" />
        </mxCell>
        <mxCell id="23" value="Conduct stakeholder analysis and interviews" style="whiteSpace=wrap;rounded=1;fillColor=#999999;strokeColor=none;shadow=1;fontColor=#FFFFFF;fontStyle=0" parent="1" vertex="1">
          <mxGeometry x="49.99999999999994" y="398.0000000000001" width="120" height="60" as="geometry" />
        </mxCell>
        <mxCell id="24" value="Conduct user research and surveys" style="whiteSpace=wrap;rounded=1;fillColor=#999999;strokeColor=none;shadow=1;fontColor=#FFFFFF;fontStyle=0" parent="1" vertex="1">
          <mxGeometry x="50.000000000000114" y="478.0000000000001" width="120" height="60" as="geometry" />
        </mxCell>
        <mxCell id="25" value="Create user stories and use cases" style="whiteSpace=wrap;rounded=1;fillColor=#999999;strokeColor=none;shadow=1;fontColor=#FFFFFF;fontStyle=0" parent="1" vertex="1">
          <mxGeometry x="50.00000000000006" y="558.0000000000001" width="120" height="60" as="geometry" />
        </mxCell>
        <mxCell id="26" value="Prioritize features and functionalities" style="whiteSpace=wrap;rounded=1;fillColor=#999999;strokeColor=none;shadow=1;fontColor=#FFFFFF;fontStyle=0" parent="1" vertex="1">
          <mxGeometry x="50.0000000000002" y="638.0000000000001" width="120" height="60" as="geometry" />
        </mxCell>
        <mxCell id="27" value="Define success criteria and metrics" style="whiteSpace=wrap;rounded=1;fillColor=#999999;strokeColor=none;shadow=1;fontColor=#FFFFFF;fontStyle=0" parent="1" vertex="1">
          <mxGeometry x="50.00000000000034" y="718.0000000000001" width="120" height="60" as="geometry" />
        </mxCell>
        <mxCell id="38" value="Identify required skills and expertise" style="whiteSpace=wrap;rounded=1;fillColor=#999999;strokeColor=none;shadow=1;fontColor=#FFFFFF;fontStyle=0" parent="1" vertex="1">
          <mxGeometry x="249.9999999999996" y="398.0000000000001" width="120" height="60" as="geometry" />
        </mxCell>
        <mxCell id="39" value="Recruit and onboard team members" style="whiteSpace=wrap;rounded=1;fillColor=#999999;strokeColor=none;shadow=1;fontColor=#FFFFFF;fontStyle=0" parent="1" vertex="1">
          <mxGeometry x="249.99999999999977" y="478.0000000000001" width="120" height="60" as="geometry" />
        </mxCell>
        <mxCell id="40" value="Define communication and collaboration tools and methods" style="whiteSpace=wrap;rounded=1;fillColor=#999999;strokeColor=none;shadow=1;fontColor=#FFFFFF;fontStyle=0" parent="1" vertex="1">
          <mxGeometry x="249.99999999999972" y="558.0000000000001" width="120" height="60" as="geometry" />
        </mxCell>
        <mxCell id="43" value="Create wireframes, mockups, prototypes, and style guides" style="whiteSpace=wrap;rounded=1;fillColor=#12AAB5;strokeColor=none;shadow=1;fontColor=#FFFFFF;" parent="1" vertex="1">
          <mxGeometry x="689.9999999999998" y="298.0000000000001" width="120" height="60" as="geometry" />
        </mxCell>
        <mxCell id="44" value="Validate and approve design with stakeholders and users" style="whiteSpace=wrap;rounded=1;fillColor=#12AAB5;strokeColor=none;shadow=1;fontColor=#FFFFFF;" parent="1" vertex="1">
          <mxGeometry x="889.9999999999998" y="298.0000000000001" width="120" height="60" as="geometry" />
        </mxCell>
        <mxCell id="45" value="Define user interface and user experience principles and guidelines" style="whiteSpace=wrap;rounded=1;fillColor=#999999;strokeColor=none;shadow=1;fontColor=#FFFFFF;fontStyle=0" parent="1" vertex="1">
          <mxGeometry x="689.9999999999998" y="398.0000000000001" width="120" height="60" as="geometry" />
        </mxCell>
        <mxCell id="46" value="Sketch low-fidelity wireframes for each screen and feature" style="whiteSpace=wrap;rounded=1;fillColor=#999999;strokeColor=none;shadow=1;fontColor=#FFFFFF;fontStyle=0" parent="1" vertex="1">
          <mxGeometry x="689.9999999999999" y="478.0000000000001" width="120" height="60" as="geometry" />
        </mxCell>
        <mxCell id="47" value="Create high-fidelity mockups with colors, fonts, icons, images, etc." style="whiteSpace=wrap;rounded=1;fillColor=#999999;strokeColor=none;shadow=1;fontColor=#FFFFFF;fontStyle=0" parent="1" vertex="1">
          <mxGeometry x="689.9999999999998" y="558.0000000000001" width="120" height="60" as="geometry" />
        </mxCell>
        <mxCell id="48" value="Build interactive prototypes with navigation, transitions, animations, etc." style="whiteSpace=wrap;rounded=1;fillColor=#999999;strokeColor=none;shadow=1;fontColor=#FFFFFF;fontStyle=0" parent="1" vertex="1">
          <mxGeometry x="690" y="638" width="120" height="70" as="geometry" />
        </mxCell>
        <mxCell id="49" value="Create style guides with design specifications and standards" style="whiteSpace=wrap;rounded=1;fillColor=#999999;strokeColor=none;shadow=1;fontColor=#FFFFFF;fontStyle=0" parent="1" vertex="1">
          <mxGeometry x="690.0000000000001" y="718.0000000000001" width="120" height="60" as="geometry" />
        </mxCell>
        <mxCell id="50" value="Conduct design reviews and feedback sessions with stakeholders" style="whiteSpace=wrap;rounded=1;fillColor=#999999;strokeColor=none;shadow=1;fontColor=#FFFFFF;fontStyle=0" parent="1" vertex="1">
          <mxGeometry x="889.9999999999993" y="398.0000000000001" width="120" height="60" as="geometry" />
        </mxCell>
        <mxCell id="51" value="Conduct usability testing and user feedback sessions with users" style="whiteSpace=wrap;rounded=1;fillColor=#999999;strokeColor=none;shadow=1;fontColor=#FFFFFF;fontStyle=0" parent="1" vertex="1">
          <mxGeometry x="889.9999999999995" y="478.0000000000001" width="120" height="60" as="geometry" />
        </mxCell>
        <mxCell id="52" value="Incorporate feedback and suggestions into design iterations" style="whiteSpace=wrap;rounded=1;fillColor=#999999;strokeColor=none;shadow=1;fontColor=#FFFFFF;fontStyle=0" parent="1" vertex="1">
          <mxGeometry x="889.9999999999995" y="558.0000000000001" width="120" height="60" as="geometry" />
        </mxCell>
        <mxCell id="53" value="Finalize design and get approval from stakeholders and users" style="whiteSpace=wrap;rounded=1;fillColor=#999999;strokeColor=none;shadow=1;fontColor=#FFFFFF;fontStyle=0" parent="1" vertex="1">
          <mxGeometry x="889.9999999999997" y="638.0000000000001" width="120" height="60" as="geometry" />
        </mxCell>
        <mxCell id="103" value="" style="edgeStyle=elbowEdgeStyle;elbow=vertical;rounded=0;fontColor=#000000;endArrow=none;endFill=0;strokeWidth=8;strokeColor=#23445D;" parent="1" source="3" target="10" edge="1">
          <mxGeometry width="100" height="100" relative="1" as="geometry">
            <mxPoint y="288" as="sourcePoint" />
            <mxPoint x="100" y="188" as="targetPoint" />
          </mxGeometry>
        </mxCell>
        <mxCell id="104" value="" style="edgeStyle=elbowEdgeStyle;elbow=vertical;rounded=0;fontColor=#000000;endArrow=none;endFill=0;strokeWidth=8;strokeColor=#23445D;" parent="1" source="3" target="12" edge="1">
          <mxGeometry width="100" height="100" relative="1" as="geometry">
            <mxPoint x="340" y="288" as="sourcePoint" />
            <mxPoint x="440" y="188" as="targetPoint" />
          </mxGeometry>
        </mxCell>
        <mxCell id="105" value="" style="edgeStyle=elbowEdgeStyle;elbow=horizontal;rounded=0;fontColor=#000000;endArrow=none;endFill=0;strokeWidth=8;strokeColor=#23445D;" parent="1" source="10" target="23" edge="1">
          <mxGeometry width="100" height="100" relative="1" as="geometry">
            <mxPoint x="-10" y="478" as="sourcePoint" />
            <mxPoint x="90" y="378" as="targetPoint" />
            <Array as="points">
              <mxPoint x="30" y="378" />
            </Array>
          </mxGeometry>
        </mxCell>
        <mxCell id="106" value="" style="edgeStyle=elbowEdgeStyle;elbow=horizontal;rounded=0;fontColor=#000000;endArrow=none;endFill=0;strokeWidth=8;strokeColor=#23445D;" parent="1" source="10" target="24" edge="1">
          <mxGeometry width="100" height="100" relative="1" as="geometry">
            <mxPoint x="60" y="338" as="sourcePoint" />
            <mxPoint x="60" y="438" as="targetPoint" />
            <Array as="points">
              <mxPoint x="30" y="398" />
            </Array>
          </mxGeometry>
        </mxCell>
        <mxCell id="107" value="" style="edgeStyle=elbowEdgeStyle;elbow=horizontal;rounded=0;fontColor=#000000;endArrow=none;endFill=0;strokeWidth=8;strokeColor=#23445D;" parent="1" source="10" target="27" edge="1">
          <mxGeometry width="100" height="100" relative="1" as="geometry">
            <mxPoint x="60" y="338" as="sourcePoint" />
            <mxPoint x="60" y="438" as="targetPoint" />
            <Array as="points">
              <mxPoint x="30" y="538" />
            </Array>
          </mxGeometry>
        </mxCell>
        <mxCell id="109" value="" style="edgeStyle=elbowEdgeStyle;elbow=horizontal;rounded=0;fontColor=#000000;endArrow=none;endFill=0;strokeWidth=8;strokeColor=#23445D;" parent="1" source="10" target="26" edge="1">
          <mxGeometry width="100" height="100" relative="1" as="geometry">
            <mxPoint x="80" y="358" as="sourcePoint" />
            <mxPoint x="80" y="458" as="targetPoint" />
            <Array as="points">
              <mxPoint x="30" y="408" />
            </Array>
          </mxGeometry>
        </mxCell>
        <mxCell id="110" value="" style="edgeStyle=elbowEdgeStyle;elbow=horizontal;rounded=0;fontColor=#000000;endArrow=none;endFill=0;strokeWidth=8;strokeColor=#23445D;" parent="1" source="10" target="25" edge="1">
          <mxGeometry width="100" height="100" relative="1" as="geometry">
            <mxPoint x="90" y="368" as="sourcePoint" />
            <mxPoint x="90" y="468" as="targetPoint" />
            <Array as="points">
              <mxPoint x="30" y="428" />
            </Array>
          </mxGeometry>
        </mxCell>
        <mxCell id="111" value="" style="edgeStyle=elbowEdgeStyle;elbow=horizontal;rounded=0;fontColor=#000000;endArrow=none;endFill=0;strokeWidth=8;strokeColor=#23445D;" parent="1" target="38" edge="1">
          <mxGeometry width="100" height="100" relative="1" as="geometry">
            <mxPoint x="240" y="328.0000000000004" as="sourcePoint" />
            <mxPoint x="240" y="428.0000000000004" as="targetPoint" />
            <Array as="points">
              <mxPoint x="230" y="378" />
            </Array>
          </mxGeometry>
        </mxCell>
        <mxCell id="112" value="" style="edgeStyle=elbowEdgeStyle;elbow=horizontal;rounded=0;fontColor=#000000;endArrow=none;endFill=0;strokeWidth=8;strokeColor=#23445D;" parent="1" source="12" target="39" edge="1">
          <mxGeometry width="100" height="100" relative="1" as="geometry">
            <mxPoint x="240" y="328.0000000000004" as="sourcePoint" />
            <mxPoint x="240" y="508.00000000000045" as="targetPoint" />
            <Array as="points">
              <mxPoint x="230" y="418" />
            </Array>
          </mxGeometry>
        </mxCell>
        <mxCell id="115" value="" style="edgeStyle=elbowEdgeStyle;elbow=horizontal;rounded=0;fontColor=#000000;endArrow=none;endFill=0;strokeWidth=8;strokeColor=#23445D;" parent="1" source="12" target="40" edge="1">
          <mxGeometry width="100" height="100" relative="1" as="geometry">
            <mxPoint x="240" y="328.0000000000004" as="sourcePoint" />
            <mxPoint x="240" y="588.0000000000003" as="targetPoint" />
            <Array as="points">
              <mxPoint x="230" y="458" />
            </Array>
          </mxGeometry>
        </mxCell>
        <mxCell id="116" value="" style="edgeStyle=elbowEdgeStyle;elbow=vertical;rounded=0;fontColor=#000000;endArrow=none;endFill=0;strokeWidth=8;strokeColor=#23445D;" parent="1" source="4" target="43" edge="1">
          <mxGeometry width="100" height="100" relative="1" as="geometry">
            <mxPoint x="490" y="237.99999999999977" as="sourcePoint" />
            <mxPoint x="390" y="308" as="targetPoint" />
          </mxGeometry>
        </mxCell>
        <mxCell id="117" value="" style="edgeStyle=elbowEdgeStyle;elbow=vertical;rounded=0;fontColor=#000000;endArrow=none;endFill=0;strokeWidth=8;strokeColor=#23445D;" parent="1" source="4" target="44" edge="1">
          <mxGeometry width="100" height="100" relative="1" as="geometry">
            <mxPoint x="490" y="237.99999999999977" as="sourcePoint" />
            <mxPoint x="590" y="308" as="targetPoint" />
          </mxGeometry>
        </mxCell>
        <mxCell id="118" value="" style="edgeStyle=elbowEdgeStyle;elbow=horizontal;rounded=0;fontColor=#000000;endArrow=none;endFill=0;strokeWidth=8;strokeColor=#23445D;" parent="1" source="43" target="45" edge="1">
          <mxGeometry width="100" height="100" relative="1" as="geometry">
            <mxPoint x="670" y="328.00000000000045" as="sourcePoint" />
            <mxPoint x="679.9999999999995" y="428" as="targetPoint" />
            <Array as="points">
              <mxPoint x="670" y="378" />
            </Array>
          </mxGeometry>
        </mxCell>
        <mxCell id="119" value="" style="edgeStyle=elbowEdgeStyle;elbow=horizontal;rounded=0;fontColor=#000000;endArrow=none;endFill=0;strokeWidth=8;strokeColor=#23445D;" parent="1" source="43" target="46" edge="1">
          <mxGeometry width="100" height="100" relative="1" as="geometry">
            <mxPoint x="680" y="328" as="sourcePoint" />
            <mxPoint x="679.9999999999998" y="508" as="targetPoint" />
            <Array as="points">
              <mxPoint x="670" y="418" />
            </Array>
          </mxGeometry>
        </mxCell>
        <mxCell id="120" value="" style="edgeStyle=elbowEdgeStyle;elbow=horizontal;rounded=0;fontColor=#000000;endArrow=none;endFill=0;strokeWidth=8;strokeColor=#23445D;" parent="1" source="43" target="49" edge="1">
          <mxGeometry width="100" height="100" relative="1" as="geometry">
            <mxPoint x="680" y="328" as="sourcePoint" />
            <mxPoint x="680" y="748" as="targetPoint" />
            <Array as="points">
              <mxPoint x="670" y="548" />
            </Array>
          </mxGeometry>
        </mxCell>
        <mxCell id="121" value="" style="edgeStyle=elbowEdgeStyle;elbow=horizontal;rounded=0;fontColor=#000000;endArrow=none;endFill=0;strokeWidth=8;strokeColor=#23445D;" parent="1" source="43" target="48" edge="1">
          <mxGeometry width="100" height="100" relative="1" as="geometry">
            <mxPoint x="680" y="328" as="sourcePoint" />
            <mxPoint x="680" y="668" as="targetPoint" />
            <Array as="points">
              <mxPoint x="670" y="498" />
            </Array>
          </mxGeometry>
        </mxCell>
        <mxCell id="122" value="" style="edgeStyle=elbowEdgeStyle;elbow=horizontal;rounded=0;fontColor=#000000;endArrow=none;endFill=0;strokeWidth=8;strokeColor=#23445D;" parent="1" source="43" target="47" edge="1">
          <mxGeometry width="100" height="100" relative="1" as="geometry">
            <mxPoint x="680" y="328" as="sourcePoint" />
            <mxPoint x="679.9999999999998" y="588" as="targetPoint" />
            <Array as="points">
              <mxPoint x="670" y="468" />
            </Array>
          </mxGeometry>
        </mxCell>
        <mxCell id="123" value="" style="edgeStyle=elbowEdgeStyle;elbow=horizontal;rounded=0;fontColor=#000000;endArrow=none;endFill=0;strokeWidth=8;strokeColor=#23445D;" parent="1" source="44" target="50" edge="1">
          <mxGeometry width="100" height="100" relative="1" as="geometry">
            <mxPoint x="860" y="328.00000000000045" as="sourcePoint" />
            <mxPoint x="869.9999999999995" y="428" as="targetPoint" />
            <Array as="points">
              <mxPoint x="870" y="378" />
            </Array>
          </mxGeometry>
        </mxCell>
        <mxCell id="124" value="" style="edgeStyle=elbowEdgeStyle;elbow=horizontal;rounded=0;fontColor=#000000;endArrow=none;endFill=0;strokeWidth=8;strokeColor=#23445D;" parent="1" source="44" target="51" edge="1">
          <mxGeometry width="100" height="100" relative="1" as="geometry">
            <mxPoint x="870" y="328" as="sourcePoint" />
            <mxPoint x="869.9999999999998" y="508" as="targetPoint" />
            <Array as="points">
              <mxPoint x="870" y="418" />
            </Array>
          </mxGeometry>
        </mxCell>
        <mxCell id="126" value="" style="edgeStyle=elbowEdgeStyle;elbow=horizontal;rounded=0;fontColor=#000000;endArrow=none;endFill=0;strokeWidth=8;strokeColor=#23445D;" parent="1" source="44" target="53" edge="1">
          <mxGeometry width="100" height="100" relative="1" as="geometry">
            <mxPoint x="870" y="328" as="sourcePoint" />
            <mxPoint x="870" y="668" as="targetPoint" />
            <Array as="points">
              <mxPoint x="870" y="498" />
            </Array>
          </mxGeometry>
        </mxCell>
        <mxCell id="127" value="" style="edgeStyle=elbowEdgeStyle;elbow=horizontal;rounded=0;fontColor=#000000;endArrow=none;endFill=0;strokeWidth=8;strokeColor=#23445D;" parent="1" source="44" target="52" edge="1">
          <mxGeometry width="100" height="100" relative="1" as="geometry">
            <mxPoint x="870" y="328" as="sourcePoint" />
            <mxPoint x="869.9999999999998" y="588" as="targetPoint" />
            <Array as="points">
              <mxPoint x="870" y="468" />
            </Array>
          </mxGeometry>
        </mxCell>
        <mxCell id="133" value="Develop front-end using Angular and TypeScript" style="whiteSpace=wrap;rounded=1;fillColor=#12AAB5;strokeColor=none;shadow=1;fontColor=#FFFFFF;" parent="1" vertex="1">
          <mxGeometry x="1089.9999999999998" y="298.0000000000001" width="120" height="60" as="geometry" />
        </mxCell>
        <mxCell id="134" value="Develop back-end using Node.js and MongoDB" style="whiteSpace=wrap;rounded=1;fillColor=#12AAB5;strokeColor=none;shadow=1;fontColor=#FFFFFF;" parent="1" vertex="1">
          <mxGeometry x="1289.9999999999998" y="298.0000000000001" width="120" height="60" as="geometry" />
        </mxCell>
        <mxCell id="135" value="Set up development environment and tools" style="whiteSpace=wrap;rounded=1;fillColor=#999999;strokeColor=none;shadow=1;fontColor=#FFFFFF;fontStyle=0" parent="1" vertex="1">
          <mxGeometry x="1089.9999999999998" y="398.0000000000001" width="120" height="60" as="geometry" />
        </mxCell>
        <mxCell id="136" value="Implement user interface components using Angular framework" style="whiteSpace=wrap;rounded=1;fillColor=#999999;strokeColor=none;shadow=1;fontColor=#FFFFFF;fontStyle=0" parent="1" vertex="1">
          <mxGeometry x="1090" y="478.0000000000001" width="120" height="60" as="geometry" />
        </mxCell>
        <mxCell id="137" value="Write TypeScript code for front-end logic and functionality" style="whiteSpace=wrap;rounded=1;fillColor=#999999;strokeColor=none;shadow=1;fontColor=#FFFFFF;fontStyle=0" parent="1" vertex="1">
          <mxGeometry x="1089.9999999999998" y="558.0000000000001" width="120" height="60" as="geometry" />
        </mxCell>
        <mxCell id="138" value="Connect front-end with back-end using RESTful APIs" style="whiteSpace=wrap;rounded=1;fillColor=#999999;strokeColor=none;shadow=1;fontColor=#FFFFFF;fontStyle=0" parent="1" vertex="1">
          <mxGeometry x="1090" y="638.0000000000001" width="120" height="60" as="geometry" />
        </mxCell>
        <mxCell id="140" value="Implement server-side logic and functionality using Node.js framework" style="whiteSpace=wrap;rounded=1;fillColor=#999999;strokeColor=none;shadow=1;fontColor=#FFFFFF;fontStyle=0" parent="1" vertex="1">
          <mxGeometry x="1289.9999999999993" y="398.0000000000001" width="120" height="60" as="geometry" />
        </mxCell>
        <mxCell id="141" value="Write Node.js code for back-end logic and functionality" style="whiteSpace=wrap;rounded=1;fillColor=#999999;strokeColor=none;shadow=1;fontColor=#FFFFFF;fontStyle=0" parent="1" vertex="1">
          <mxGeometry x="1289.9999999999995" y="478.0000000000001" width="120" height="60" as="geometry" />
        </mxCell>
        <mxCell id="142" value="Design database schema and models using MongoDB database" style="whiteSpace=wrap;rounded=1;fillColor=#999999;strokeColor=none;shadow=1;fontColor=#FFFFFF;fontStyle=0" parent="1" vertex="1">
          <mxGeometry x="1289.9999999999995" y="558.0000000000001" width="120" height="60" as="geometry" />
        </mxCell>
        <mxCell id="145" value="" style="edgeStyle=elbowEdgeStyle;elbow=horizontal;rounded=0;fontColor=#000000;endArrow=none;endFill=0;strokeWidth=8;strokeColor=#23445D;" parent="1" source="133" target="135" edge="1">
          <mxGeometry width="100" height="100" relative="1" as="geometry">
            <mxPoint x="1070" y="328.00000000000045" as="sourcePoint" />
            <mxPoint x="1079.9999999999995" y="428" as="targetPoint" />
            <Array as="points">
              <mxPoint x="1070" y="378" />
            </Array>
          </mxGeometry>
        </mxCell>
        <mxCell id="146" value="" style="edgeStyle=elbowEdgeStyle;elbow=horizontal;rounded=0;fontColor=#000000;endArrow=none;endFill=0;strokeWidth=8;strokeColor=#23445D;" parent="1" source="133" target="136" edge="1">
          <mxGeometry width="100" height="100" relative="1" as="geometry">
            <mxPoint x="1080" y="328" as="sourcePoint" />
            <mxPoint x="1079.9999999999998" y="508" as="targetPoint" />
            <Array as="points">
              <mxPoint x="1070" y="418" />
            </Array>
          </mxGeometry>
        </mxCell>
        <mxCell id="148" value="" style="edgeStyle=elbowEdgeStyle;elbow=horizontal;rounded=0;fontColor=#000000;endArrow=none;endFill=0;strokeWidth=8;strokeColor=#23445D;" parent="1" source="133" target="138" edge="1">
          <mxGeometry width="100" height="100" relative="1" as="geometry">
            <mxPoint x="1080" y="328" as="sourcePoint" />
            <mxPoint x="1080" y="668" as="targetPoint" />
            <Array as="points">
              <mxPoint x="1070" y="498" />
            </Array>
          </mxGeometry>
        </mxCell>
        <mxCell id="149" value="" style="edgeStyle=elbowEdgeStyle;elbow=horizontal;rounded=0;fontColor=#000000;endArrow=none;endFill=0;strokeWidth=8;strokeColor=#23445D;" parent="1" source="133" target="137" edge="1">
          <mxGeometry width="100" height="100" relative="1" as="geometry">
            <mxPoint x="1080" y="328" as="sourcePoint" />
            <mxPoint x="1079.9999999999998" y="588" as="targetPoint" />
            <Array as="points">
              <mxPoint x="1070" y="468" />
            </Array>
          </mxGeometry>
        </mxCell>
        <mxCell id="150" value="" style="edgeStyle=elbowEdgeStyle;elbow=horizontal;rounded=0;fontColor=#000000;endArrow=none;endFill=0;strokeWidth=8;strokeColor=#23445D;" parent="1" source="134" target="140" edge="1">
          <mxGeometry width="100" height="100" relative="1" as="geometry">
            <mxPoint x="1260" y="328.00000000000045" as="sourcePoint" />
            <mxPoint x="1269.9999999999995" y="428" as="targetPoint" />
            <Array as="points">
              <mxPoint x="1270" y="378" />
            </Array>
          </mxGeometry>
        </mxCell>
        <mxCell id="151" value="" style="edgeStyle=elbowEdgeStyle;elbow=horizontal;rounded=0;fontColor=#000000;endArrow=none;endFill=0;strokeWidth=8;strokeColor=#23445D;" parent="1" source="134" target="141" edge="1">
          <mxGeometry width="100" height="100" relative="1" as="geometry">
            <mxPoint x="1270" y="328" as="sourcePoint" />
            <mxPoint x="1269.9999999999998" y="508" as="targetPoint" />
            <Array as="points">
              <mxPoint x="1270" y="418" />
            </Array>
          </mxGeometry>
        </mxCell>
        <mxCell id="154" value="" style="edgeStyle=elbowEdgeStyle;elbow=horizontal;rounded=0;fontColor=#000000;endArrow=none;endFill=0;strokeWidth=8;strokeColor=#23445D;" parent="1" source="134" target="142" edge="1">
          <mxGeometry width="100" height="100" relative="1" as="geometry">
            <mxPoint x="1270" y="328" as="sourcePoint" />
            <mxPoint x="1269.9999999999998" y="588" as="targetPoint" />
            <Array as="points">
              <mxPoint x="1270" y="468" />
            </Array>
          </mxGeometry>
        </mxCell>
        <mxCell id="155" value="Monitor and fix errors, bugs, and performance issues" style="whiteSpace=wrap;rounded=1;fillColor=#12AAB5;strokeColor=none;shadow=1;fontColor=#FFFFFF;" parent="1" vertex="1">
          <mxGeometry x="1659.9999999999998" y="298.0000000000002" width="120" height="60" as="geometry" />
        </mxCell>
        <mxCell id="156" value="Update features and functionalities as needed" style="whiteSpace=wrap;rounded=1;fillColor=#12AAB5;strokeColor=none;shadow=1;fontColor=#FFFFFF;" parent="1" vertex="1">
          <mxGeometry x="1859.9999999999998" y="298.0000000000002" width="120" height="60" as="geometry" />
        </mxCell>
        <mxCell id="157" value="Use monitoring tools to track website performance and availability" style="whiteSpace=wrap;rounded=1;fillColor=#999999;strokeColor=none;shadow=1;fontColor=#FFFFFF;fontStyle=0" parent="1" vertex="1">
          <mxGeometry x="1659.9999999999998" y="398.0000000000002" width="120" height="60" as="geometry" />
        </mxCell>
        <mxCell id="158" value="Use logging tools to track website errors and bugs" style="whiteSpace=wrap;rounded=1;fillColor=#999999;strokeColor=none;shadow=1;fontColor=#FFFFFF;fontStyle=0" parent="1" vertex="1">
          <mxGeometry x="1660" y="478.0000000000002" width="120" height="60" as="geometry" />
        </mxCell>
        <mxCell id="159" value="Use troubleshooting tools to diagnose and fix issues" style="whiteSpace=wrap;rounded=1;fillColor=#999999;strokeColor=none;shadow=1;fontColor=#FFFFFF;fontStyle=0" parent="1" vertex="1">
          <mxGeometry x="1659.9999999999998" y="558.0000000000002" width="120" height="60" as="geometry" />
        </mxCell>
        <mxCell id="162" value="Gather feedback and suggestions from stakeholders and users" style="whiteSpace=wrap;rounded=1;fillColor=#999999;strokeColor=none;shadow=1;fontColor=#FFFFFF;fontStyle=0" parent="1" vertex="1">
          <mxGeometry x="1859.9999999999993" y="398.0000000000002" width="120" height="60" as="geometry" />
        </mxCell>
        <mxCell id="163" value="Prioritize new features or enhancements based on user needs" style="whiteSpace=wrap;rounded=1;fillColor=#999999;strokeColor=none;shadow=1;fontColor=#FFFFFF;fontStyle=0" parent="1" vertex="1">
          <mxGeometry x="1859.9999999999995" y="478.0000000000002" width="120" height="60" as="geometry" />
        </mxCell>
        <mxCell id="164" value="Implement new features or enhancements following the development process" style="whiteSpace=wrap;rounded=1;fillColor=#999999;strokeColor=none;shadow=1;fontColor=#FFFFFF;fontStyle=0" parent="1" vertex="1">
          <mxGeometry x="1860" y="558" width="120" height="90" as="geometry" />
        </mxCell>
        <mxCell id="167" value="" style="edgeStyle=elbowEdgeStyle;elbow=horizontal;rounded=0;fontColor=#000000;endArrow=none;endFill=0;strokeWidth=8;strokeColor=#23445D;" parent="1" source="155" target="157" edge="1">
          <mxGeometry width="100" height="100" relative="1" as="geometry">
            <mxPoint x="1640" y="328.00000000000057" as="sourcePoint" />
            <mxPoint x="1649.9999999999995" y="428.0000000000001" as="targetPoint" />
            <Array as="points">
              <mxPoint x="1640" y="378.0000000000001" />
            </Array>
          </mxGeometry>
        </mxCell>
        <mxCell id="168" value="" style="edgeStyle=elbowEdgeStyle;elbow=horizontal;rounded=0;fontColor=#000000;endArrow=none;endFill=0;strokeWidth=8;strokeColor=#23445D;" parent="1" source="155" target="158" edge="1">
          <mxGeometry width="100" height="100" relative="1" as="geometry">
            <mxPoint x="1650" y="328.0000000000001" as="sourcePoint" />
            <mxPoint x="1649.9999999999998" y="508.0000000000001" as="targetPoint" />
            <Array as="points">
              <mxPoint x="1640" y="418.0000000000001" />
            </Array>
          </mxGeometry>
        </mxCell>
        <mxCell id="171" value="" style="edgeStyle=elbowEdgeStyle;elbow=horizontal;rounded=0;fontColor=#000000;endArrow=none;endFill=0;strokeWidth=8;strokeColor=#23445D;" parent="1" source="155" target="159" edge="1">
          <mxGeometry width="100" height="100" relative="1" as="geometry">
            <mxPoint x="1650" y="328.0000000000001" as="sourcePoint" />
            <mxPoint x="1649.9999999999998" y="588.0000000000001" as="targetPoint" />
            <Array as="points">
              <mxPoint x="1640" y="468.0000000000001" />
            </Array>
          </mxGeometry>
        </mxCell>
        <mxCell id="172" value="" style="edgeStyle=elbowEdgeStyle;elbow=horizontal;rounded=0;fontColor=#000000;endArrow=none;endFill=0;strokeWidth=8;strokeColor=#23445D;" parent="1" source="156" target="162" edge="1">
          <mxGeometry width="100" height="100" relative="1" as="geometry">
            <mxPoint x="1830" y="328.00000000000057" as="sourcePoint" />
            <mxPoint x="1839.9999999999995" y="428.0000000000001" as="targetPoint" />
            <Array as="points">
              <mxPoint x="1840" y="378.0000000000001" />
            </Array>
          </mxGeometry>
        </mxCell>
        <mxCell id="173" value="" style="edgeStyle=elbowEdgeStyle;elbow=horizontal;rounded=0;fontColor=#000000;endArrow=none;endFill=0;strokeWidth=8;strokeColor=#23445D;" parent="1" source="156" target="163" edge="1">
          <mxGeometry width="100" height="100" relative="1" as="geometry">
            <mxPoint x="1840" y="328.0000000000001" as="sourcePoint" />
            <mxPoint x="1839.9999999999998" y="508.0000000000001" as="targetPoint" />
            <Array as="points">
              <mxPoint x="1840" y="418.0000000000001" />
            </Array>
          </mxGeometry>
        </mxCell>
        <mxCell id="176" value="" style="edgeStyle=elbowEdgeStyle;elbow=horizontal;rounded=0;fontColor=#000000;endArrow=none;endFill=0;strokeWidth=8;strokeColor=#23445D;" parent="1" source="156" target="164" edge="1">
          <mxGeometry width="100" height="100" relative="1" as="geometry">
            <mxPoint x="1840" y="328.0000000000001" as="sourcePoint" />
            <mxPoint x="1839.9999999999998" y="588.0000000000001" as="targetPoint" />
            <Array as="points">
              <mxPoint x="1840" y="468.0000000000001" />
            </Array>
          </mxGeometry>
        </mxCell>
        <mxCell id="221" value="" style="edgeStyle=elbowEdgeStyle;elbow=vertical;rounded=0;fontColor=#000000;endArrow=none;endFill=0;strokeWidth=8;strokeColor=#23445D;" parent="1" source="6" target="133" edge="1">
          <mxGeometry width="100" height="100" relative="1" as="geometry">
            <mxPoint x="1060" y="268" as="sourcePoint" />
            <mxPoint x="1160" y="168" as="targetPoint" />
          </mxGeometry>
        </mxCell>
        <mxCell id="222" value="" style="edgeStyle=elbowEdgeStyle;elbow=vertical;rounded=0;fontColor=#000000;endArrow=none;endFill=0;strokeWidth=8;strokeColor=#23445D;" parent="1" source="6" target="134" edge="1">
          <mxGeometry width="100" height="100" relative="1" as="geometry">
            <mxPoint x="1310" y="278" as="sourcePoint" />
            <mxPoint x="1410" y="178" as="targetPoint" />
          </mxGeometry>
        </mxCell>
        <mxCell id="223" value="" style="edgeStyle=elbowEdgeStyle;elbow=vertical;rounded=0;fontColor=#000000;endArrow=none;endFill=0;strokeWidth=8;strokeColor=#23445D;" parent="1" source="7" target="155" edge="1">
          <mxGeometry width="100" height="100" relative="1" as="geometry">
            <mxPoint x="1820" y="298" as="sourcePoint" />
            <mxPoint x="1720" y="188" as="targetPoint" />
          </mxGeometry>
        </mxCell>
        <mxCell id="224" value="" style="edgeStyle=elbowEdgeStyle;elbow=vertical;rounded=0;fontColor=#000000;endArrow=none;endFill=0;strokeWidth=8;strokeColor=#23445D;" parent="1" source="7" target="156" edge="1">
          <mxGeometry width="100" height="100" relative="1" as="geometry">
            <mxPoint x="1910" y="288" as="sourcePoint" />
            <mxPoint x="2010" y="188" as="targetPoint" />
          </mxGeometry>
        </mxCell>
        <mxCell id="229" value="" style="edgeStyle=elbowEdgeStyle;elbow=vertical;rounded=0;fontColor=#000000;endArrow=none;endFill=0;strokeWidth=8;strokeColor=#23445D;" parent="1" source="2" target="3" edge="1">
          <mxGeometry width="100" height="100" relative="1" as="geometry">
            <mxPoint x="790" y="138" as="sourcePoint" />
            <mxPoint x="890" y="38" as="targetPoint" />
          </mxGeometry>
        </mxCell>
        <mxCell id="230" value="" style="edgeStyle=elbowEdgeStyle;elbow=vertical;rounded=0;fontColor=#000000;endArrow=none;endFill=0;strokeWidth=8;strokeColor=#23445D;" parent="1" source="2" target="4" edge="1">
          <mxGeometry width="100" height="100" relative="1" as="geometry">
            <mxPoint x="800" y="148" as="sourcePoint" />
            <mxPoint x="900" y="48" as="targetPoint" />
          </mxGeometry>
        </mxCell>
        <mxCell id="231" value="" style="edgeStyle=elbowEdgeStyle;elbow=vertical;rounded=0;fontColor=#000000;endArrow=none;endFill=0;strokeWidth=8;strokeColor=#23445D;" parent="1" source="2" target="6" edge="1">
          <mxGeometry width="100" height="100" relative="1" as="geometry">
            <mxPoint x="810" y="158" as="sourcePoint" />
            <mxPoint x="910" y="58" as="targetPoint" />
          </mxGeometry>
        </mxCell>
        <mxCell id="232" value="" style="edgeStyle=elbowEdgeStyle;elbow=vertical;rounded=0;fontColor=#000000;endArrow=none;endFill=0;strokeWidth=8;strokeColor=#23445D;" parent="1" source="2" target="7" edge="1">
          <mxGeometry width="100" height="100" relative="1" as="geometry">
            <mxPoint x="820" y="168" as="sourcePoint" />
            <mxPoint x="920" y="68" as="targetPoint" />
          </mxGeometry>
        </mxCell>
        <mxCell id="mHlKdOslawolav47LWe9-241" value="Create project plan" style="whiteSpace=wrap;rounded=1;fillColor=#12AAB5;strokeColor=none;shadow=1;fontColor=#FFFFFF;" vertex="1" parent="1">
          <mxGeometry x="440" y="298.0000000000001" width="120" height="60" as="geometry" />
        </mxCell>
        <mxCell id="mHlKdOslawolav47LWe9-242" value="Estimate time, cost, and resources" style="whiteSpace=wrap;rounded=1;fillColor=#999999;strokeColor=none;shadow=1;fontColor=#FFFFFF;fontStyle=0" vertex="1" parent="1">
          <mxGeometry x="439.99999999999994" y="398.0000000000001" width="120" height="60" as="geometry" />
        </mxCell>
        <mxCell id="mHlKdOslawolav47LWe9-243" value="Identify risks and mitigation strategies" style="whiteSpace=wrap;rounded=1;fillColor=#999999;strokeColor=none;shadow=1;fontColor=#FFFFFF;fontStyle=0" vertex="1" parent="1">
          <mxGeometry x="440.0000000000001" y="478.0000000000001" width="120" height="60" as="geometry" />
        </mxCell>
        <mxCell id="mHlKdOslawolav47LWe9-244" value="Create work breakdown structure and schedule" style="whiteSpace=wrap;rounded=1;fillColor=#999999;strokeColor=none;shadow=1;fontColor=#FFFFFF;fontStyle=0" vertex="1" parent="1">
          <mxGeometry x="440.00000000000006" y="558.0000000000001" width="120" height="60" as="geometry" />
        </mxCell>
        <mxCell id="mHlKdOslawolav47LWe9-245" value="Create quality assurance plan and testing strategy" style="whiteSpace=wrap;rounded=1;fillColor=#999999;strokeColor=none;shadow=1;fontColor=#FFFFFF;fontStyle=0" vertex="1" parent="1">
          <mxGeometry x="440.0000000000002" y="638.0000000000001" width="120" height="60" as="geometry" />
        </mxCell>
        <mxCell id="mHlKdOslawolav47LWe9-247" value="" style="edgeStyle=elbowEdgeStyle;elbow=horizontal;rounded=0;fontColor=#000000;endArrow=none;endFill=0;strokeWidth=8;strokeColor=#23445D;" edge="1" parent="1" source="mHlKdOslawolav47LWe9-241" target="mHlKdOslawolav47LWe9-242">
          <mxGeometry width="100" height="100" relative="1" as="geometry">
            <mxPoint x="380" y="478" as="sourcePoint" />
            <mxPoint x="480" y="378" as="targetPoint" />
            <Array as="points">
              <mxPoint x="420" y="378" />
            </Array>
          </mxGeometry>
        </mxCell>
        <mxCell id="mHlKdOslawolav47LWe9-248" value="" style="edgeStyle=elbowEdgeStyle;elbow=horizontal;rounded=0;fontColor=#000000;endArrow=none;endFill=0;strokeWidth=8;strokeColor=#23445D;" edge="1" parent="1" source="mHlKdOslawolav47LWe9-241" target="mHlKdOslawolav47LWe9-243">
          <mxGeometry width="100" height="100" relative="1" as="geometry">
            <mxPoint x="450" y="338" as="sourcePoint" />
            <mxPoint x="450" y="438" as="targetPoint" />
            <Array as="points">
              <mxPoint x="420" y="398" />
            </Array>
          </mxGeometry>
        </mxCell>
        <mxCell id="mHlKdOslawolav47LWe9-250" value="" style="edgeStyle=elbowEdgeStyle;elbow=horizontal;rounded=0;fontColor=#000000;endArrow=none;endFill=0;strokeWidth=8;strokeColor=#23445D;" edge="1" parent="1" source="mHlKdOslawolav47LWe9-241" target="mHlKdOslawolav47LWe9-245">
          <mxGeometry width="100" height="100" relative="1" as="geometry">
            <mxPoint x="470" y="358" as="sourcePoint" />
            <mxPoint x="470" y="458" as="targetPoint" />
            <Array as="points">
              <mxPoint x="420" y="408" />
            </Array>
          </mxGeometry>
        </mxCell>
        <mxCell id="mHlKdOslawolav47LWe9-251" value="" style="edgeStyle=elbowEdgeStyle;elbow=horizontal;rounded=0;fontColor=#000000;endArrow=none;endFill=0;strokeWidth=8;strokeColor=#23445D;" edge="1" parent="1" source="mHlKdOslawolav47LWe9-241" target="mHlKdOslawolav47LWe9-244">
          <mxGeometry width="100" height="100" relative="1" as="geometry">
            <mxPoint x="480" y="368" as="sourcePoint" />
            <mxPoint x="480" y="468" as="targetPoint" />
            <Array as="points">
              <mxPoint x="420" y="428" />
            </Array>
          </mxGeometry>
        </mxCell>
        <mxCell id="mHlKdOslawolav47LWe9-253" value="" style="edgeStyle=elbowEdgeStyle;elbow=vertical;rounded=0;fontColor=#000000;endArrow=none;endFill=0;strokeWidth=8;strokeColor=#23445D;entryX=0.5;entryY=0;entryDx=0;entryDy=0;" edge="1" parent="1" target="mHlKdOslawolav47LWe9-241">
          <mxGeometry width="100" height="100" relative="1" as="geometry">
            <mxPoint x="210" y="228" as="sourcePoint" />
            <mxPoint x="310" y="298" as="targetPoint" />
          </mxGeometry>
        </mxCell>
        <mxCell id="mHlKdOslawolav47LWe9-255" value="Integrate with external APIs for authentication, payment, luggage tracking, flight tracking, and weather tracking" style="whiteSpace=wrap;rounded=1;fillColor=#12AAB5;strokeColor=none;shadow=1;fontColor=#FFFFFF;" vertex="1" parent="1">
          <mxGeometry x="1469" y="298" width="120" height="120" as="geometry" />
        </mxCell>
        <mxCell id="mHlKdOslawolav47LWe9-256" value="Research and select suitable external APIs for each feature" style="whiteSpace=wrap;rounded=1;fillColor=#999999;strokeColor=none;shadow=1;fontColor=#FFFFFF;fontStyle=0" vertex="1" parent="1">
          <mxGeometry x="1468.9999999999993" y="478.0000000000001" width="120" height="60" as="geometry" />
        </mxCell>
        <mxCell id="mHlKdOslawolav47LWe9-257" value="Write code to call and consume API data using HTTP requests" style="whiteSpace=wrap;rounded=1;fillColor=#999999;strokeColor=none;shadow=1;fontColor=#FFFFFF;fontStyle=0" vertex="1" parent="1">
          <mxGeometry x="1468.9999999999995" y="558.0000000000001" width="120" height="60" as="geometry" />
        </mxCell>
        <mxCell id="mHlKdOslawolav47LWe9-258" value="Design database schema and models using MongoDB database" style="whiteSpace=wrap;rounded=1;fillColor=#999999;strokeColor=none;shadow=1;fontColor=#FFFFFF;fontStyle=0" vertex="1" parent="1">
          <mxGeometry x="1468.9999999999995" y="638.0000000000001" width="120" height="60" as="geometry" />
        </mxCell>
        <mxCell id="mHlKdOslawolav47LWe9-259" value="" style="edgeStyle=elbowEdgeStyle;elbow=horizontal;rounded=0;fontColor=#000000;endArrow=none;endFill=0;strokeWidth=8;strokeColor=#23445D;exitX=0;exitY=0.5;exitDx=0;exitDy=0;" edge="1" parent="1" source="mHlKdOslawolav47LWe9-255" target="mHlKdOslawolav47LWe9-256">
          <mxGeometry width="100" height="100" relative="1" as="geometry">
            <mxPoint x="1439" y="328.00000000000045" as="sourcePoint" />
            <mxPoint x="1448.9999999999995" y="428" as="targetPoint" />
            <Array as="points">
              <mxPoint x="1449" y="378" />
            </Array>
          </mxGeometry>
        </mxCell>
        <mxCell id="mHlKdOslawolav47LWe9-260" value="" style="edgeStyle=elbowEdgeStyle;elbow=horizontal;rounded=0;fontColor=#000000;endArrow=none;endFill=0;strokeWidth=8;strokeColor=#23445D;exitX=0;exitY=0.5;exitDx=0;exitDy=0;" edge="1" parent="1" source="mHlKdOslawolav47LWe9-255" target="mHlKdOslawolav47LWe9-257">
          <mxGeometry width="100" height="100" relative="1" as="geometry">
            <mxPoint x="1449" y="328" as="sourcePoint" />
            <mxPoint x="1448.9999999999998" y="508" as="targetPoint" />
            <Array as="points">
              <mxPoint x="1449" y="418" />
            </Array>
          </mxGeometry>
        </mxCell>
        <mxCell id="mHlKdOslawolav47LWe9-261" value="" style="edgeStyle=elbowEdgeStyle;elbow=horizontal;rounded=0;fontColor=#000000;endArrow=none;endFill=0;strokeWidth=8;strokeColor=#23445D;" edge="1" parent="1" source="mHlKdOslawolav47LWe9-255" target="mHlKdOslawolav47LWe9-258">
          <mxGeometry width="100" height="100" relative="1" as="geometry">
            <mxPoint x="1449" y="328" as="sourcePoint" />
            <mxPoint x="1448.9999999999998" y="588" as="targetPoint" />
            <Array as="points">
              <mxPoint x="1449" y="468" />
            </Array>
          </mxGeometry>
        </mxCell>
        <mxCell id="mHlKdOslawolav47LWe9-262" value="" style="edgeStyle=elbowEdgeStyle;elbow=vertical;rounded=0;fontColor=#000000;endArrow=none;endFill=0;strokeWidth=8;strokeColor=#23445D;exitX=0.5;exitY=1;exitDx=0;exitDy=0;entryX=0.5;entryY=0;entryDx=0;entryDy=0;" edge="1" parent="1" source="6" target="mHlKdOslawolav47LWe9-255">
          <mxGeometry width="100" height="100" relative="1" as="geometry">
            <mxPoint x="1260" y="238" as="sourcePoint" />
            <mxPoint x="1360" y="308" as="targetPoint" />
          </mxGeometry>
        </mxCell>
        <mxCell id="mHlKdOslawolav47LWe9-263" value="Provide technical support to users" style="whiteSpace=wrap;rounded=1;fillColor=#12AAB5;strokeColor=none;shadow=1;fontColor=#FFFFFF;" vertex="1" parent="1">
          <mxGeometry x="2023.9999999999998" y="298.0000000000002" width="120" height="60" as="geometry" />
        </mxCell>
        <mxCell id="mHlKdOslawolav47LWe9-264" value="Create user documentation and tutorials for the website" style="whiteSpace=wrap;rounded=1;fillColor=#999999;strokeColor=none;shadow=1;fontColor=#FFFFFF;fontStyle=0" vertex="1" parent="1">
          <mxGeometry x="2023.9999999999993" y="398.0000000000002" width="120" height="60" as="geometry" />
        </mxCell>
        <mxCell id="mHlKdOslawolav47LWe9-265" value="Provide online or offline help desk or chat support to users" style="whiteSpace=wrap;rounded=1;fillColor=#999999;strokeColor=none;shadow=1;fontColor=#FFFFFF;fontStyle=0" vertex="1" parent="1">
          <mxGeometry x="2023.9999999999995" y="478.0000000000002" width="120" height="60" as="geometry" />
        </mxCell>
        <mxCell id="mHlKdOslawolav47LWe9-266" value="Answer user queries or complaints promptly and professionally" style="whiteSpace=wrap;rounded=1;fillColor=#999999;strokeColor=none;shadow=1;fontColor=#FFFFFF;fontStyle=0" vertex="1" parent="1">
          <mxGeometry x="2023.9999999999995" y="558.0000000000002" width="120" height="60" as="geometry" />
        </mxCell>
        <mxCell id="mHlKdOslawolav47LWe9-269" value="" style="edgeStyle=elbowEdgeStyle;elbow=horizontal;rounded=0;fontColor=#000000;endArrow=none;endFill=0;strokeWidth=8;strokeColor=#23445D;" edge="1" parent="1" source="mHlKdOslawolav47LWe9-263" target="mHlKdOslawolav47LWe9-264">
          <mxGeometry width="100" height="100" relative="1" as="geometry">
            <mxPoint x="1994" y="328.00000000000057" as="sourcePoint" />
            <mxPoint x="2003.9999999999995" y="428.0000000000001" as="targetPoint" />
            <Array as="points">
              <mxPoint x="2004" y="378.0000000000001" />
            </Array>
          </mxGeometry>
        </mxCell>
        <mxCell id="mHlKdOslawolav47LWe9-270" value="" style="edgeStyle=elbowEdgeStyle;elbow=horizontal;rounded=0;fontColor=#000000;endArrow=none;endFill=0;strokeWidth=8;strokeColor=#23445D;" edge="1" parent="1" source="mHlKdOslawolav47LWe9-263" target="mHlKdOslawolav47LWe9-265">
          <mxGeometry width="100" height="100" relative="1" as="geometry">
            <mxPoint x="2004" y="328.0000000000001" as="sourcePoint" />
            <mxPoint x="2003.9999999999998" y="508.0000000000001" as="targetPoint" />
            <Array as="points">
              <mxPoint x="2004" y="418.0000000000001" />
            </Array>
          </mxGeometry>
        </mxCell>
        <mxCell id="mHlKdOslawolav47LWe9-273" value="" style="edgeStyle=elbowEdgeStyle;elbow=horizontal;rounded=0;fontColor=#000000;endArrow=none;endFill=0;strokeWidth=8;strokeColor=#23445D;" edge="1" parent="1" source="mHlKdOslawolav47LWe9-263" target="mHlKdOslawolav47LWe9-266">
          <mxGeometry width="100" height="100" relative="1" as="geometry">
            <mxPoint x="2004" y="328.0000000000001" as="sourcePoint" />
            <mxPoint x="2003.9999999999998" y="588.0000000000001" as="targetPoint" />
            <Array as="points">
              <mxPoint x="2004" y="468.0000000000001" />
            </Array>
          </mxGeometry>
        </mxCell>
        <mxCell id="mHlKdOslawolav47LWe9-274" value="" style="edgeStyle=elbowEdgeStyle;elbow=vertical;rounded=0;fontColor=#000000;endArrow=none;endFill=0;strokeWidth=8;strokeColor=#23445D;exitX=0.5;exitY=1;exitDx=0;exitDy=0;entryX=0.5;entryY=0;entryDx=0;entryDy=0;" edge="1" parent="1" source="7" target="mHlKdOslawolav47LWe9-263">
          <mxGeometry width="100" height="100" relative="1" as="geometry">
            <mxPoint x="1830" y="238" as="sourcePoint" />
            <mxPoint x="1930" y="308" as="targetPoint" />
          </mxGeometry>
        </mxCell>
        <mxCell id="mHlKdOslawolav47LWe9-276" value="Collect feedback and analytics from users" style="whiteSpace=wrap;rounded=1;fillColor=#12AAB5;strokeColor=none;shadow=1;fontColor=#FFFFFF;" vertex="1" parent="1">
          <mxGeometry x="2190" y="298.0000000000002" width="120" height="60" as="geometry" />
        </mxCell>
        <mxCell id="mHlKdOslawolav47LWe9-277" value="Use analytics tools to measure website traffic, usage, behavior, etc." style="whiteSpace=wrap;rounded=1;fillColor=#999999;strokeColor=none;shadow=1;fontColor=#FFFFFF;fontStyle=0" vertex="1" parent="1">
          <mxGeometry x="2189.999999999999" y="398.0000000000002" width="120" height="60" as="geometry" />
        </mxCell>
        <mxCell id="mHlKdOslawolav47LWe9-278" value="Use feedback tools to collect user ratings, reviews, comments, etc." style="whiteSpace=wrap;rounded=1;fillColor=#999999;strokeColor=none;shadow=1;fontColor=#FFFFFF;fontStyle=0" vertex="1" parent="1">
          <mxGeometry x="2189.9999999999995" y="478.0000000000002" width="120" height="60" as="geometry" />
        </mxCell>
        <mxCell id="mHlKdOslawolav47LWe9-279" value="Analyze feedback and analytics data to evaluate website success" style="whiteSpace=wrap;rounded=1;fillColor=#999999;strokeColor=none;shadow=1;fontColor=#FFFFFF;fontStyle=0" vertex="1" parent="1">
          <mxGeometry x="2189.9999999999995" y="558.0000000000002" width="120" height="60" as="geometry" />
        </mxCell>
        <mxCell id="mHlKdOslawolav47LWe9-280" value="" style="edgeStyle=elbowEdgeStyle;elbow=horizontal;rounded=0;fontColor=#000000;endArrow=none;endFill=0;strokeWidth=8;strokeColor=#23445D;" edge="1" parent="1" source="mHlKdOslawolav47LWe9-276" target="mHlKdOslawolav47LWe9-277">
          <mxGeometry width="100" height="100" relative="1" as="geometry">
            <mxPoint x="2160" y="328.00000000000057" as="sourcePoint" />
            <mxPoint x="2169.9999999999995" y="428.0000000000001" as="targetPoint" />
            <Array as="points">
              <mxPoint x="2170" y="378.0000000000001" />
            </Array>
          </mxGeometry>
        </mxCell>
        <mxCell id="mHlKdOslawolav47LWe9-281" value="" style="edgeStyle=elbowEdgeStyle;elbow=horizontal;rounded=0;fontColor=#000000;endArrow=none;endFill=0;strokeWidth=8;strokeColor=#23445D;" edge="1" parent="1" source="mHlKdOslawolav47LWe9-276" target="mHlKdOslawolav47LWe9-278">
          <mxGeometry width="100" height="100" relative="1" as="geometry">
            <mxPoint x="2170" y="328.0000000000001" as="sourcePoint" />
            <mxPoint x="2170" y="508.0000000000001" as="targetPoint" />
            <Array as="points">
              <mxPoint x="2170" y="418.0000000000001" />
            </Array>
          </mxGeometry>
        </mxCell>
        <mxCell id="mHlKdOslawolav47LWe9-282" value="" style="edgeStyle=elbowEdgeStyle;elbow=horizontal;rounded=0;fontColor=#000000;endArrow=none;endFill=0;strokeWidth=8;strokeColor=#23445D;" edge="1" parent="1" source="mHlKdOslawolav47LWe9-276" target="mHlKdOslawolav47LWe9-279">
          <mxGeometry width="100" height="100" relative="1" as="geometry">
            <mxPoint x="2170" y="328.0000000000001" as="sourcePoint" />
            <mxPoint x="2170" y="588.0000000000001" as="targetPoint" />
            <Array as="points">
              <mxPoint x="2170" y="468.0000000000001" />
            </Array>
          </mxGeometry>
        </mxCell>
        <mxCell id="mHlKdOslawolav47LWe9-283" value="" style="edgeStyle=elbowEdgeStyle;elbow=vertical;rounded=0;fontColor=#000000;endArrow=none;endFill=0;strokeWidth=8;strokeColor=#23445D;exitX=0.5;exitY=1;exitDx=0;exitDy=0;entryX=0.5;entryY=0;entryDx=0;entryDy=0;" edge="1" parent="1" source="7" target="mHlKdOslawolav47LWe9-276">
          <mxGeometry width="100" height="100" relative="1" as="geometry">
            <mxPoint x="1830" y="238" as="sourcePoint" />
            <mxPoint x="2094" y="308" as="targetPoint" />
          </mxGeometry>
        </mxCell>
      </root>
    </mxGraphModel>
  </diagram>
</mxfile>
